<svg width="52" height="28" viewBox="0 0 52 28" fill="none" xmlns="http://www.w3.org/2000/svg">
<path d="M13.9143 2.59862C13.9143 1.16938 15.101 0 16.5639 0C17.1329 0 17.653 0.178659 18.0919 0.487244C18.1407 0.519726 18.1732 0.568453 18.1732 0.617177C18.1732 0.64966 18.1569 0.682138 18.1407 0.714621L17.7993 1.2181C17.7668 1.26682 17.7343 1.28305 17.6855 1.28305C17.6693 1.28305 17.6205 1.28307 17.5717 1.25059C17.2629 1.05569 16.954 0.909509 16.5802 0.909509C15.5886 0.909509 14.8571 1.6891 14.8571 2.59862C14.8571 3.54061 15.6211 4.2877 16.5314 4.2877C16.8728 4.2877 17.1979 4.17402 17.523 3.96288L17.6368 3.8979C17.653 3.8979 17.653 3.8979 17.6693 3.8979C17.7343 3.8979 18.1732 4.45013 18.1732 4.58006C18.1732 4.64502 18.1407 4.67748 18.0919 4.70997C17.653 5.00231 17.1329 5.18098 16.5639 5.18098C15.101 5.19722 13.9143 4.02785 13.9143 2.59862ZM24.1876 5.116C24.2851 5.116 24.3339 5.0348 24.3339 4.96983V4.4014C24.3339 4.30395 24.2688 4.25521 24.1876 4.25521H22.0419V0.24361C22.0419 0.146162 21.9606 0.0974438 21.8793 0.0974438H21.2454C21.1479 0.0974438 21.0828 0.162403 21.0828 0.24361V4.98609C21.0828 5.08354 21.1316 5.13226 21.2291 5.13226H24.1876V5.116ZM52 17.8492C52 23.4524 47.4486 28 41.8406 28C38.0694 28 34.6396 25.9211 32.884 22.6404C31.1285 25.9211 27.6987 28 23.9275 28C20.3839 28 17.1654 26.181 15.3123 23.2088C13.8331 26.0997 10.8096 28 7.50985 28C4.38888 28 1.51172 26.3109 0 23.5986L1.98312 22.4779C3.10472 24.4756 5.21788 25.7262 7.50985 25.7262C11.1185 25.7262 14.0281 22.7053 13.8331 19.051C13.6705 15.884 11.1185 13.3016 7.94874 13.0905C6.12817 12.9605 4.38887 13.6102 3.10472 14.8608L2.99093 14.9745H0.877776L2.58456 6.91878H12.939L12.4189 9.32251H4.35636L3.88497 11.6125C5.02282 11.0766 6.25821 10.8005 7.5261 10.8005C9.02157 10.8005 10.517 11.1903 11.8174 11.9374C12.8415 12.522 13.7518 13.3016 14.467 14.2436C15.1335 12.4896 16.3038 10.9304 17.7993 9.7935C19.5711 8.44547 21.7005 7.71461 23.9437 7.71461C27.7149 7.71461 31.1447 9.79351 32.9003 13.0742C34.6558 9.79351 38.0857 7.71461 41.8568 7.71461C47.4486 7.69837 52 12.2622 52 17.8492ZM23.2123 10.1346C19.5061 10.4594 16.5314 13.4478 16.1901 17.1508C15.7512 21.9745 19.7987 26.0023 24.6264 25.58C28.3326 25.2552 31.3073 22.2668 31.6486 18.5638C32.0875 13.7401 28.0563 9.7123 23.2123 10.1346ZM49.5617 18.5638C50.0006 13.7401 45.9531 9.7123 41.1253 10.1346C37.4192 10.4594 34.4445 13.4478 34.1032 17.1508C33.6643 21.9745 37.6955 26.0023 42.5395 25.58C46.2457 25.239 49.2366 22.2668 49.5617 18.5638ZM28.9991 5.19721C30.1532 5.19721 31.1447 4.53133 31.1447 3.10209V0.211145C31.1447 0.129938 31.0635 0.0649543 30.9659 0.0649543H30.3482C30.2507 0.0649543 30.1857 0.129938 30.1857 0.211145V3.0696C30.1857 3.8167 29.698 4.33642 28.9828 4.33642C28.3001 4.33642 27.7799 3.84919 27.7799 3.0696V0.211145C27.7799 0.129938 27.6824 0.0649543 27.6174 0.0649543H26.9672C26.8859 0.0649543 26.8209 0.14618 26.8209 0.211145V3.10209C26.8534 4.45012 27.8287 5.19721 28.9991 5.19721ZM34.0381 4.96983V0.227377C34.0381 0.129929 34.1032 0.0649543 34.2007 0.0649543H36.3464C37.1429 0.0649543 37.7443 0.633422 37.7443 1.3318C37.7443 1.70535 37.6143 2.16009 37.3704 2.4037C37.7606 2.66357 38.0531 2.95593 38.0531 3.58934C38.0531 4.46637 37.3704 5.09977 36.5577 5.09977H34.2007C34.1032 5.11601 34.0381 5.06728 34.0381 4.96983ZM34.9972 2.14386H36.1675C36.5577 2.14386 36.8178 1.83527 36.8178 1.47796C36.8178 1.05569 36.4764 0.844554 36.005 0.844554H34.9972V2.14386ZM34.9972 4.33642H36.3951C36.7852 4.33642 37.1429 4.07656 37.1429 3.57308C37.1429 3.0696 36.8015 2.85846 36.3951 2.85846H34.9972V4.33642Z" fill="black"/>
</svg>
