<svg width="56" height="56" viewBox="0 0 56 56" fill="none" xmlns="http://www.w3.org/2000/svg">
<path fill-rule="evenodd" clip-rule="evenodd" d="M28 56C43.464 56 56 43.464 56 28C56 12.536 43.464 0 28 0C12.536 0 0 12.536 0 28C0 43.464 12.536 56 28 56Z" fill="url(#paint0_linear)"/>
<path fill-rule="evenodd" clip-rule="evenodd" d="M32.5269 16.8H23.473C19.7934 16.8 16.7998 19.7936 16.7998 23.4732V32.5271C16.7998 36.2067 19.7934 39.2003 23.473 39.2003H32.5269C36.2065 39.2003 39.2 36.2067 39.2 32.5271V23.4732C39.2 19.7936 36.2064 16.8 32.5269 16.8ZM36.9464 32.5269C36.9464 34.9678 34.9677 36.9466 32.5268 36.9466H23.4728C21.0319 36.9466 19.0531 34.9678 19.0531 32.5269V23.473C19.0531 21.032 21.0319 19.0533 23.4728 19.0533H32.5268C34.9677 19.0533 36.9464 21.032 36.9464 23.473V32.5269ZM22.2068 27.9993C22.2068 24.8048 24.8057 22.2059 28.0003 22.2059C31.1948 22.2059 33.7938 24.8048 33.7938 27.9993C33.7938 31.1939 31.1948 33.7928 28.0003 33.7928C24.8057 33.7928 22.2068 31.1938 22.2068 27.9993ZM27.9999 31.5403C26.0448 31.5403 24.4599 29.9554 24.4599 28.0002C24.4599 26.0451 26.0448 24.4602 27.9999 24.4602C29.9551 24.4602 31.54 26.0451 31.54 28.0002C31.54 29.9553 29.955 31.5403 27.9999 31.5403ZM35.1928 22.2501C35.1928 23.0168 34.5713 23.6383 33.8046 23.6383C33.0379 23.6383 32.4163 23.0168 32.4163 22.2501C32.4163 21.4834 33.0379 20.8618 33.8046 20.8618C34.5713 20.8618 35.1928 21.4834 35.1928 22.2501Z" fill="white"/>
<defs>
<linearGradient id="paint0_linear" x1="0.187098" y1="-0.0935485" x2="8.74305e-07" y2="55.9065" gradientUnits="userSpaceOnUse">
<stop stop-color="#7024C4"/>
<stop offset="0.415461" stop-color="#C21975"/>
<stop offset="0.702206" stop-color="#C74C4D"/>
<stop offset="1" stop-color="#E09B3D"/>
</linearGradient>
</defs>
</svg>
