<svg width="31" height="30" viewBox="0 0 31 30" fill="none" xmlns="http://www.w3.org/2000/svg">
<g clip-path="url(#clip0)">
<rect x="0.874023" width="30" height="30" rx="15" fill="#4033AD"/>
<path fill-rule="evenodd" clip-rule="evenodd" d="M16.657 10.9728L16.7614 13.9725C16.7647 14.0954 16.8235 14.2151 16.9149 14.3034C17.0096 14.3948 17.1336 14.4452 17.2577 14.4515L20.3657 14.5523C20.6301 14.5618 20.8391 14.3601 20.8293 14.1049C20.826 13.9757 20.7672 13.8559 20.6791 13.7709C20.5877 13.6826 20.4669 13.6291 20.333 13.6259L18.3905 13.5597L21.5083 10.5506C21.6912 10.3741 21.6814 10.0811 21.4855 9.892C21.2929 9.7061 20.986 9.69349 20.8031 9.86995L17.6821 12.8823L17.6168 10.998C17.607 10.7428 17.385 10.5285 17.1206 10.519C16.8561 10.5096 16.6472 10.7113 16.657 10.9728Z" fill="#4033AD"/>
<path d="M17.287 17.6656L15.7767 19.1028L11.9161 15.3768L13.4053 13.9191C13.4971 13.8305 13.5535 13.7147 13.5818 13.5989C13.6029 13.4763 13.5888 13.3537 13.5394 13.2379L11.9867 9.74341C11.9232 9.60717 11.8173 9.49138 11.6762 9.43007C11.535 9.36195 11.3798 9.34833 11.2245 9.3892L8.37316 10.1181C8.23201 10.1521 8.10497 10.2339 8.02028 10.3497C7.93559 10.4655 7.88619 10.6017 7.89325 10.7447C8.07675 13.9395 9.45299 16.9639 11.7679 19.2595C14.1393 21.4938 17.2729 22.8221 20.59 22.9992C20.7383 23.006 20.8794 22.9583 20.9994 22.8766C21.1194 22.7949 21.2041 22.6722 21.2394 22.536L21.9945 19.784C22.0369 19.641 22.0157 19.4843 21.9522 19.3481C21.8816 19.2118 21.7687 19.1029 21.6275 19.0484L18.0069 17.5498C17.8869 17.5021 17.7599 17.4884 17.6329 17.5089C17.4988 17.5157 17.3788 17.577 17.287 17.6656Z" fill="white"/>
</g>
<defs>
<clipPath id="clip0">
<rect width="30.0802" height="30" fill="white" transform="translate(0.874023)"/>
</clipPath>
</defs>
</svg>
