<svg width="30" height="30" viewBox="0 0 30 30" fill="none" xmlns="http://www.w3.org/2000/svg">
<g clip-path="url(#clip0)">
<path d="M12.0522 7.02606C12.8024 6.71144 13.117 5.816 12.7782 5.08997L11.5924 2.59725C11.2535 1.89566 10.4307 1.5808 9.70466 1.89566C7.64757 2.7669 5.88088 3.90435 4.47721 5.28382C2.75893 6.90505 1.59728 8.76854 0.968046 10.8256C0.338816 12.9072 0 15.7385 0 19.3444V26.7742C0 27.5728 0.653431 28.2263 1.45207 28.2263H10.9631C11.7618 28.2263 12.4152 27.5728 12.4152 26.7742V17.2632C12.4152 16.4643 11.7618 15.8111 10.9631 15.8111H6.41331C6.46171 13.3665 7.04254 11.4065 8.10739 9.92996C8.97863 8.74458 10.2855 7.77654 12.0522 7.02606Z" fill="black" fill-opacity="0.03"/>
<path d="M29.1383 7.02597C29.8886 6.71135 30.2029 5.81591 29.8644 5.08987L28.6785 2.6216C28.3397 1.91976 27.5169 1.60515 26.7908 1.91976C24.7579 2.79101 23.0152 3.92846 21.5876 5.28372C19.869 6.9294 18.6834 8.79289 18.054 10.85C17.4247 12.8826 17.1104 15.7144 17.1104 19.3446V26.7744C17.1104 27.573 17.7638 28.2264 18.5624 28.2264H28.0735C28.8721 28.2264 29.5255 27.573 29.5255 26.7744V17.2633C29.5255 16.4644 28.8721 15.8112 28.0735 15.8112H23.4995C23.5479 13.3667 24.1289 11.4066 25.1935 9.93011C26.0648 8.74449 27.3716 7.77644 29.1383 7.02597Z" fill="black" fill-opacity="0.03"/>
</g>
<defs>
<clipPath id="clip0">
<rect width="30" height="30" fill="white"/>
</clipPath>
</defs>
</svg>
