<svg width="58" height="58" viewBox="0 0 58 58" fill="none" xmlns="http://www.w3.org/2000/svg">
<path d="M29.7571 31.6539C29.6498 31.6307 29.5397 31.6265 29.431 31.6428C28.3417 31.516 27.5199 30.5943 27.5181 29.498C27.5181 28.9727 27.0921 28.5467 26.5667 28.5467C26.0413 28.5467 25.6153 28.9727 25.6153 29.498C25.6181 31.3288 26.8426 32.9324 28.6079 33.4169V34.3682C28.6079 34.8936 29.0338 35.3196 29.5592 35.3196C30.0846 35.3196 30.5106 34.8936 30.5106 34.3682V33.4745C32.548 33.048 33.9328 31.1504 33.7187 29.08C33.5041 27.0095 31.7597 25.4361 29.6782 25.4357C28.4852 25.4357 27.5181 24.4685 27.5181 23.2756C27.5181 22.0827 28.4852 21.1155 29.6782 21.1155C30.8711 21.1155 31.8382 22.0827 31.8382 23.2756C31.8382 23.801 32.2642 24.227 32.7896 24.227C33.315 24.227 33.741 23.801 33.741 23.2756C33.7382 21.3533 32.3915 19.6954 30.5106 19.2987V18.4328C30.5106 17.9074 30.0846 17.4814 29.5592 17.4814C29.0338 17.4814 28.6079 17.9074 28.6079 18.4328V19.3568C26.6447 19.8928 25.3812 21.7988 25.6516 23.8158C25.9219 25.8329 27.643 27.3384 29.6782 27.338C30.8553 27.338 31.8155 28.2805 31.8368 29.4572C31.8587 30.6338 30.9333 31.6112 29.7571 31.6539Z" fill="white"/>
<path d="M15.8828 26.4598C15.8828 34.0791 22.0593 40.2556 29.6786 40.2556C37.2979 40.2556 43.4743 34.0791 43.4743 26.4598C43.4743 18.8405 37.2979 12.6641 29.6786 12.6641C22.063 12.6724 15.8916 18.8442 15.8828 26.4598ZM29.6786 14.5668C36.2471 14.5668 41.5716 19.8913 41.5716 26.4598C41.5716 33.0284 36.2471 38.3529 29.6786 38.3529C23.11 38.3529 17.7855 33.0284 17.7855 26.4598C17.793 19.8946 23.1133 14.5742 29.6786 14.5668Z" fill="white"/>
<path d="M48.1638 42.6011L40.7113 46.1222C39.6823 44.2083 37.7085 42.9903 35.5363 42.929L28.6566 42.7399C27.5673 42.7088 26.4984 42.4329 25.5298 41.9326L24.8298 41.5698C21.2454 39.7014 16.9731 39.7061 13.3924 41.5819L13.4361 39.9959C13.4505 39.4706 13.0366 39.033 12.5112 39.0186L4.96717 38.8109C4.44178 38.7965 4.00465 39.2104 3.99025 39.7358L3.53454 56.2909C3.52014 56.8163 3.93404 57.2539 4.45943 57.2683L12.0035 57.4759H12.0295C12.5451 57.4759 12.9669 57.0657 12.9809 56.5506L13.0027 55.7585L14.9626 54.7092C15.7318 54.2953 16.6312 54.1968 17.4715 54.4346L29.175 57.7193C29.1954 57.7254 29.2159 57.73 29.2368 57.7347C30.0827 57.9117 30.9449 58.0004 31.8089 57.9999C33.6392 58.0009 35.4481 57.6065 37.1116 56.8428C37.1525 56.8242 37.1919 56.8024 37.2296 56.7777L54.1986 45.8017C54.6213 45.5281 54.7579 44.973 54.5103 44.5344C53.2505 42.2991 50.4563 41.4476 48.1638 42.6011ZM5.46283 55.3925L5.86604 40.7392L11.5078 40.8944L11.1046 55.5481L5.46283 55.3925ZM36.2545 55.1435C34.1878 56.0763 31.8795 56.3336 29.6581 55.8798L17.9862 52.6034C16.6725 52.2323 15.2664 52.386 14.0646 53.0322L13.0631 53.5687L13.3311 43.826C16.5048 41.7152 20.5751 41.4982 23.955 43.2593L24.6551 43.6221C25.8787 44.2539 27.2281 44.6023 28.6046 44.6422L35.4848 44.8313C37.4172 44.887 39.0584 46.263 39.4505 48.1564L29.2024 47.8735C28.677 47.8591 28.2399 48.2735 28.225 48.7984C28.2106 49.3238 28.625 49.7614 29.1499 49.7758L40.4595 50.087H40.486C41.0011 50.0866 41.4225 49.6764 41.4364 49.1617C41.448 48.7482 41.4174 48.3343 41.3444 47.9274L48.9883 44.3157C48.9958 44.3124 49.0032 44.3087 49.0106 44.305C50.0949 43.7564 51.4058 43.9398 52.2977 44.7653L36.2545 55.1435Z" fill="white"/>
<path d="M30.6293 9.98936V0.951367C30.6293 0.425978 30.2033 0 29.6779 0C29.1525 0 28.7266 0.425978 28.7266 0.951367V9.98936C28.7266 10.5147 29.1525 10.9407 29.6779 10.9407C30.2033 10.9407 30.6293 10.5147 30.6293 9.98936Z" fill="white"/>
<path d="M37.765 9.98936V5.7082C37.765 5.18281 37.3391 4.75684 36.8137 4.75684C36.2883 4.75684 35.8623 5.18281 35.8623 5.7082V9.98936C35.8623 10.5147 36.2883 10.9407 36.8137 10.9407C37.3391 10.9407 37.765 10.5147 37.765 9.98936Z" fill="white"/>
<path d="M23.4945 9.98936V5.7082C23.4945 5.18281 23.0686 4.75684 22.5432 4.75684C22.0178 4.75684 21.5918 5.18281 21.5918 5.7082V9.98936C21.5918 10.5147 22.0178 10.9407 22.5432 10.9407C23.0686 10.9407 23.4945 10.5147 23.4945 9.98936Z" fill="white"/>
</svg>
