<svg width="50" height="50" viewBox="0 0 50 50" fill="none" xmlns="http://www.w3.org/2000/svg">
<path fill-rule="evenodd" clip-rule="evenodd" d="M25 50C38.8071 50 50 38.8071 50 25C50 11.1929 38.8071 0 25 0C11.1929 0 0 11.1929 0 25C0 38.8071 11.1929 50 25 50Z" fill="#45AEE4"/>
<path fill-rule="evenodd" clip-rule="evenodd" d="M17.4415 26.6901L11.9294 24.5576C11.3695 24.3401 11.3647 23.5208 11.9229 23.2976L34.5451 14.2519C35.0246 14.0596 35.5195 14.4952 35.4151 15.0172L31.3554 35.2586C31.2597 35.7365 30.7191 35.9532 30.3375 35.6657L24.7957 31.4952C24.4591 31.2419 24.0003 31.2555 23.6783 31.5275L20.6057 34.1239C20.249 34.4262 19.7116 34.2578 19.5751 33.8023L17.4415 26.6901ZM30.0041 18.6774L19.2313 25.5548C18.8184 25.819 18.624 26.3358 18.7574 26.8198L19.9221 31.062C20.0048 31.3626 20.4258 31.3318 20.4659 31.0212L20.7687 28.6948C20.8258 28.2568 21.0275 27.8533 21.3399 27.5517L30.2307 18.9854C30.3969 18.8255 30.1977 18.5542 30.0041 18.6774Z" fill="white"/>
<path d="M19.2314 25.5551L30.0043 18.6777C30.1979 18.5544 30.3971 18.8258 30.2308 18.9856L21.3401 27.552C21.0276 27.8535 20.826 28.257 20.7689 28.695L20.466 31.0214C20.4259 31.3321 20.005 31.3629 19.9223 31.0622L18.7575 26.82C18.6241 26.3361 18.8185 25.8193 19.2314 25.5551Z" fill="#EAEAEA"/>
</svg>
