<svg width="50" height="50" viewBox="0 0 50 50" fill="none" xmlns="http://www.w3.org/2000/svg">
<path fill-rule="evenodd" clip-rule="evenodd" d="M25 50C38.8071 50 50 38.8071 50 25C50 11.1929 38.8071 0 25 0C11.1929 0 0 11.1929 0 25C0 38.8071 11.1929 50 25 50Z" fill="#2BB641"/>
<g clip-path="url(#clip0)">
<path fill-rule="evenodd" clip-rule="evenodd" d="M33.5036 16.4874C31.2449 14.2393 28.242 13 25.0456 13C18.459 13 13.1025 18.335 13.0987 24.8942C13.0987 26.9836 13.6492 29.0315 14.6931 30.8338L13 37L19.336 35.3413C21.0785 36.2897 23.0411 36.7884 25.0418 36.7884H25.0456C31.6359 36.7884 36.9962 31.4534 37 24.9018C37.0038 21.7204 35.7586 18.7393 33.5036 16.4874ZM25.0456 34.7821H25.0418C23.2651 34.7821 21.515 34.3023 19.9889 33.4068L19.6283 33.1877L15.8662 34.1738L16.8684 30.5239L16.6368 30.1499C15.6422 28.5781 15.1145 26.7569 15.1145 24.8942C15.1145 19.4421 19.5751 15.0101 25.0493 15.0101C27.7067 15.0101 30.2009 16.0378 32.0762 17.9081C33.9478 19.7746 34.9842 22.2569 34.9842 24.9018C34.9804 30.3463 30.5236 34.7821 25.0456 34.7821ZM30.497 27.3804C30.2009 27.2292 28.7279 26.5113 28.4584 26.4131C28.1851 26.3186 27.9839 26.2657 27.7827 26.5605C27.5853 26.8589 27.0158 27.5277 26.8374 27.7317C26.6628 27.9244 26.4881 27.9509 26.192 27.7997C25.8921 27.6524 24.9279 27.3388 23.789 26.3262C22.9045 25.5403 22.3046 24.5693 22.13 24.2708C21.9592 23.9723 22.1148 23.8098 22.2591 23.6625C22.392 23.5302 22.559 23.3186 22.7071 23.1411C22.8551 22.9673 22.9083 22.8463 23.007 22.6461C23.1095 22.4458 23.0601 22.2758 22.9842 22.1247C22.9083 21.9773 22.3122 20.5151 22.0617 19.9181C21.8225 19.3401 21.572 19.4194 21.3935 19.4081C21.2189 19.4005 21.0177 19.4005 20.8165 19.4005C20.6153 19.4005 20.2964 19.4723 20.0193 19.7708C19.7498 20.0693 18.9791 20.7909 18.9791 22.2494C18.9791 23.7116 20.0497 25.1247 20.1939 25.3212C20.342 25.5252 22.3046 28.5252 25.2999 29.8098C26.006 30.1159 26.5679 30.2972 26.9968 30.4333C27.7143 30.66 28.3635 30.6297 28.876 30.5542C29.4568 30.4673 30.6488 29.8325 30.8956 29.1448C31.1461 28.4458 31.1461 27.8489 31.0664 27.7317C30.9981 27.6033 30.7931 27.5277 30.497 27.3804Z" fill="white"/>
</g>
<defs>
<clipPath id="clip0">
<rect width="24" height="24" fill="white" transform="translate(13 13)"/>
</clipPath>
</defs>
</svg>
