<svg width="58" height="58" viewBox="0 0 58 58" fill="none" xmlns="http://www.w3.org/2000/svg">
<path d="M51.7611 30.0487C51.2305 28.8305 50.2066 27.8822 48.9516 27.4468L34.1498 22.3107C33.8905 21.3987 33.3865 20.5884 32.7126 19.9565L33.983 5.17952C34.0967 3.85156 33.6458 2.52715 32.7444 1.54523C31.8435 0.563309 30.562 0 29.2296 0C27.9012 0 26.6228 0.560211 25.7223 1.53682C24.8218 2.51343 24.3669 3.83298 24.4745 5.15695L25.6741 19.9353C24.9776 20.5813 24.4594 21.4164 24.2014 22.358L9.20981 27.5601C7.95442 27.9955 6.93047 28.9438 6.3999 30.162C5.86934 31.3798 5.87199 32.7755 6.40742 33.991C6.94507 35.2106 7.97699 36.1562 9.23857 36.5845C9.73639 36.7536 10.2546 36.8372 10.7714 36.8372C11.5653 36.8372 12.3556 36.6403 13.0627 36.2531L26.0772 29.1482V39.8228C26.0772 40.4485 26.5843 40.9556 27.21 40.9556C27.8357 40.9556 28.3428 40.4485 28.3428 39.8228V28.8172C28.6163 28.8624 28.8964 28.8867 29.1823 28.8867C29.4681 28.8867 29.7482 28.8624 30.0217 28.8172V55.7344H28.3428V38.8853C28.3428 38.26 27.8357 37.7525 27.21 37.7525C26.5843 37.7525 26.0772 38.26 26.0772 38.8853V55.7344H19.9264C19.3011 55.7344 18.7936 56.2415 18.7936 56.8672C18.7936 57.4929 19.3011 58 19.9264 58H37.6607C38.2864 58 38.7935 57.4929 38.7935 56.8672C38.7935 56.2415 38.2864 55.7344 37.6607 55.7344H32.2873V29.1478L45.097 36.1394C45.805 36.527 46.5957 36.7239 47.39 36.7239C47.9064 36.7239 48.4246 36.6403 48.9224 36.4713C50.184 36.0429 51.2159 35.0973 51.7536 33.8777C52.289 32.6622 52.2916 31.2665 51.7611 30.0487ZM26.7326 4.97331C26.675 4.26796 26.9078 3.5927 27.3875 3.07231C27.8676 2.55237 28.5216 2.26562 29.2296 2.26562C29.9398 2.26562 30.5952 2.5537 31.0753 3.07674C31.5554 3.60022 31.7864 4.27814 31.7253 4.98526L30.543 18.7401C30.1093 18.6215 29.6531 18.5569 29.1823 18.5569C28.7212 18.5569 28.2747 18.6184 27.8494 18.7321L26.7326 4.97331ZM11.9763 34.2649C11.3533 34.6061 10.64 34.668 9.96738 34.4397C9.29521 34.2109 8.7673 33.7273 8.481 33.0777C8.19559 32.4299 8.19426 31.7157 8.47702 31.0669C8.75934 30.4178 9.28371 29.9328 9.95233 29.7005L24.1271 24.782C24.3041 25.6263 24.6877 26.395 25.2223 27.0335L11.9763 34.2649ZM26.283 23.7218C26.283 22.123 27.5835 20.8221 29.1823 20.8221C30.781 20.8221 32.082 22.1226 32.082 23.7218C32.082 25.3206 30.781 26.6211 29.1823 26.6211C27.5835 26.6211 26.283 25.3206 26.283 23.7218ZM49.68 32.964C49.3937 33.614 48.8658 34.0977 48.1936 34.326C47.521 34.5548 46.8077 34.4928 46.1838 34.1512L33.1422 27.0331C33.6852 26.3848 34.0724 25.602 34.2454 24.7422L48.2087 29.5872C48.8773 29.8195 49.4016 30.3045 49.6844 30.9532C49.9667 31.6024 49.9654 32.3166 49.68 32.964Z" fill="white"/>
<path d="M37.8575 12.656C39.6443 14.0742 41.0803 15.9191 42.0104 17.9917C42.1989 18.4117 42.6122 18.6608 43.0445 18.6608C43.1994 18.6608 43.3569 18.629 43.5078 18.5613C44.0787 18.305 44.3336 17.6346 44.0773 17.0643C42.9994 14.6619 41.3356 12.5242 39.2655 10.8816C38.7757 10.4926 38.0633 10.5745 37.6743 11.0648C37.2853 11.5546 37.3672 12.2671 37.8575 12.656Z" fill="white"/>
</svg>
