<svg width="14" height="14" viewBox="0 0 14 14" fill="none" xmlns="http://www.w3.org/2000/svg">
<path fill-rule="evenodd" clip-rule="evenodd" d="M13.5397 7.19174C13.5397 6.04992 13.2427 4.97672 12.7248 4.04288C11.7649 2.31316 10.0411 1.06977 8.01224 0.758486C7.68883 0.708917 7.36057 0.675293 7.02329 0.675293C6.6711 0.675293 6.32793 0.711343 5.99065 0.765419C3.97044 1.08953 2.25528 2.33812 1.30549 4.06992C0.796972 4.99752 0.506836 6.06101 0.506836 7.19174C0.506836 9.12806 1.36061 10.8651 2.70556 12.0589L3.91117 12.9161C4.83635 13.4212 5.89671 13.7089 7.02329 13.7089C8.14951 13.7089 9.20988 13.4212 10.1351 12.9161L11.3407 12.0589C12.6856 10.8651 13.5397 9.12806 13.5397 7.19174ZM2.32946 7.19174C2.32946 9.78043 4.43494 11.8859 7.02363 11.8859C9.61198 11.8859 11.7175 9.78043 11.7175 7.19139C11.7175 6.37922 11.5105 5.61558 11.1465 4.94899C10.4536 3.6803 9.19081 2.77037 7.70651 2.55268C7.48293 2.51975 7.25588 2.49722 7.02363 2.49722C6.77683 2.49722 6.53661 2.52218 6.3002 2.55892C4.82837 2.78805 3.57909 3.69798 2.89413 4.96113C2.53432 5.62528 2.32946 6.38477 2.32946 7.19174Z" fill="#5C626B"/>
<path d="M9.65383 8.28967L7.8631 7.18389C7.82601 6.97452 7.71266 6.79392 7.55355 6.66601L7.63536 4.41911C7.64541 4.13209 7.42148 3.89117 7.13481 3.88043C6.84884 3.86726 6.60688 4.09396 6.59614 4.38097L6.51398 6.63031C6.29179 6.78699 6.14551 7.04489 6.14551 7.3378C6.14551 7.81651 6.5334 8.20405 7.0121 8.20405C7.14833 8.20405 7.27555 8.16973 7.38994 8.11392L9.10753 9.17533C9.1928 9.22732 9.28743 9.25263 9.38033 9.25263C9.55469 9.25263 9.72455 9.16527 9.82334 9.00617C9.97447 8.76109 9.89821 8.4408 9.65383 8.28967Z" fill="#5C626B"/>
</svg>
