<svg width="58" height="58" viewBox="0 0 58 58" fill="none" xmlns="http://www.w3.org/2000/svg">
<path d="M38.9932 31.3511L34.0561 29.1568C33.7073 29.0019 33.4821 28.6551 33.4821 28.2736V26.9178C35.1406 25.5964 36.2066 23.5615 36.2066 21.2812V19.3727C36.7529 19.0708 37.1146 18.4874 37.1146 17.834V17.6488C37.1146 13.6753 33.8819 10.4426 29.9084 10.4426H28.0923C24.1189 10.4426 20.8861 13.6753 20.8861 17.6488V19.3293C20.8861 19.9037 21.1333 20.424 21.5641 20.7569C21.6372 20.8133 21.7141 20.8629 21.7942 20.9059V21.2811C21.7942 23.5614 22.8601 25.5963 24.5184 26.9176V28.2735C24.5184 28.655 24.2931 29.0018 23.9444 29.1567L19.0074 31.351C17.3905 32.0695 16.3457 33.6772 16.3457 35.4466V46.7072C16.3457 47.1764 16.7261 47.5568 17.1953 47.5568C17.6645 47.5568 18.0449 47.1764 18.0449 46.7072V35.4467C18.0449 35.3482 18.0519 35.2509 18.0621 35.1544L20.3371 37.4293C20.6911 37.7835 20.8861 38.2541 20.8861 38.755V46.7073C20.8861 47.1765 21.2665 47.5569 21.7357 47.5569C22.205 47.5569 22.5854 47.1765 22.5854 46.7073V38.755C22.5854 37.8003 22.2137 36.9029 21.5386 36.2279L18.8266 33.5157C19.0709 33.2622 19.3641 33.052 19.6976 32.9037L24.5514 30.7465L28.1509 34.346V46.7072C28.1509 47.1764 28.5313 47.5568 29.0005 47.5568C29.4697 47.5568 29.8501 47.1764 29.8501 46.7072V34.3462L33.4496 30.7466L38.3033 32.9037C38.6368 33.052 38.93 33.2622 39.1743 33.5158L36.4622 36.2279C35.7872 36.9029 35.4155 37.8003 35.4155 38.755V46.7073C35.4155 47.1765 35.7959 47.5569 36.2651 47.5569C36.7343 47.5569 37.1147 47.1765 37.1147 46.7073V38.755C37.1147 38.2542 37.3097 37.7835 37.6638 37.4293L39.9386 35.1545C39.9488 35.251 39.9558 35.3481 39.9558 35.4466V46.7072C39.9558 47.1764 40.3362 47.5568 40.8054 47.5568C41.2747 47.5568 41.6551 47.1764 41.6551 46.7072V35.4467C41.6547 33.6773 40.61 32.0696 38.9932 31.3511ZM29.0001 32.7927L25.8417 29.6342C26.0819 29.2301 26.2175 28.7626 26.2175 28.2736V27.9278C27.0743 28.2879 28.0144 28.4873 29.0003 28.4873C29.9862 28.4873 30.9262 28.288 31.7828 27.928V28.2736C31.7828 28.7627 31.9184 29.2301 32.1587 29.6343L29.0001 32.7927ZM29.0003 26.788C25.9638 26.7881 23.4933 24.3177 23.4933 21.2812V20.8991C24.0235 20.6889 24.5409 20.3545 25.0363 19.8974C25.381 19.5792 25.4027 19.0417 25.0843 18.6969C24.7661 18.3522 24.2287 18.3305 23.8838 18.6487C23.4589 19.041 23.0343 19.2944 22.6222 19.4021C22.6122 19.4047 22.6048 19.4058 22.5996 19.4063C22.5935 19.3944 22.5852 19.3694 22.5852 19.3294V17.6489C22.5852 14.6124 25.0557 12.142 28.0922 12.142H29.9083C32.945 12.142 35.4153 14.6124 35.4153 17.6489V17.8341C35.4153 17.8617 35.3987 17.8856 35.377 17.8899C30.2894 18.8947 27.7376 17.0009 26.8767 16.14C26.5449 15.8082 26.0069 15.8082 25.6752 16.14C25.3434 16.4718 25.3434 17.0098 25.6752 17.3415C28.3136 19.9798 32.1634 20.0274 34.5072 19.7458V21.2811C34.5072 24.3176 32.0368 26.788 29.0003 26.788Z" fill="white"/>
<path d="M15.3204 26.73V24.9135C15.3204 22.6971 14.1686 20.7459 12.433 19.6231C12.5401 19.2792 12.5961 18.9191 12.5961 18.557C12.5961 16.5863 10.9929 14.9832 9.0223 14.9832C7.05166 14.9832 5.4485 16.5864 5.4485 18.557C5.4485 18.9237 5.50401 19.2803 5.6114 19.6233C3.87593 20.746 2.72419 22.6972 2.72419 24.9135V26.7297C2.72419 28.876 3.8041 30.7739 5.44839 31.9115V33.7798C5.44839 34.1483 5.24369 34.4796 4.91415 34.6444L1.97552 36.1137C0.756947 36.7231 0 37.9479 0 39.3104V46.7075C0 47.1767 0.380399 47.5571 0.849611 47.5571C1.31882 47.5571 1.69922 47.1767 1.69922 46.7075V39.6778L3.08329 41.0619C3.4373 41.416 3.63237 41.8867 3.63237 42.3875V46.7075C3.63237 47.1767 4.01277 47.5571 4.48198 47.5571C4.95119 47.5571 5.33159 47.1767 5.33159 46.7075V42.3875C5.33159 41.4329 4.9598 40.5355 4.28487 39.8604L2.35852 37.9341C2.34923 37.9248 2.33926 37.9168 2.32975 37.908C2.45062 37.8013 2.58622 37.7084 2.73552 37.6337L5.67416 36.1644C5.82471 36.0891 5.96484 36.0002 6.09545 35.9014L8.17269 37.9787V46.7076C8.17269 47.1768 8.55309 47.5572 9.0223 47.5572C9.49151 47.5572 9.87191 47.1768 9.87191 46.7076V37.9786L11.9493 35.9013C12.08 36.0002 12.22 36.0891 12.3706 36.1643L13.1809 36.5695C13.3029 36.6306 13.4325 36.6595 13.5602 36.6595C13.8719 36.6595 14.172 36.4873 14.3208 36.1897C14.5307 35.77 14.3606 35.2596 13.9409 35.0498L13.1306 34.6446C12.8009 34.4798 12.5962 34.1486 12.5962 33.7802V31.9118C14.2405 30.7743 15.3204 28.8762 15.3204 26.73ZM9.0223 16.6824C10.056 16.6824 10.8969 17.5234 10.8969 18.557C10.8969 18.6708 10.8867 18.7824 10.8672 18.8917C10.2834 18.7125 9.66404 18.6154 9.0223 18.6154C8.38147 18.6154 7.76295 18.7122 7.18001 18.8909C7.16041 18.7816 7.14772 18.6706 7.14772 18.557C7.14772 17.5233 7.98861 16.6824 9.0223 16.6824ZM9.0223 20.3147C11.5581 20.3147 13.6212 22.3778 13.6212 24.9136V25.2215C10.084 26.3045 7.97592 23.6137 7.88586 23.4958C7.73803 23.2988 7.51203 23.1756 7.26644 23.1581C7.02085 23.1409 6.77956 23.2307 6.60544 23.4048C5.79446 24.2158 5.00013 24.607 4.42647 24.7958C4.48934 22.3143 6.52603 20.3147 9.0223 20.3147ZM9.0223 36.4251L7.05902 34.4618C7.11634 34.2427 7.14772 34.0143 7.14772 33.78V32.7429C7.74007 32.928 8.3698 33.0278 9.0223 33.0278C9.6748 33.0278 10.3045 32.928 10.8969 32.7429V33.78C10.8969 34.0143 10.9283 34.2428 10.9856 34.4618L9.0223 36.4251ZM9.0223 31.3285C6.4865 31.3285 4.42341 29.2655 4.42341 26.7297V26.5536C5.10095 26.398 6.10553 26.0363 7.1535 25.1934C7.52427 25.5433 8.0542 25.9724 8.72902 26.3404C9.5272 26.7758 10.6295 27.1785 11.976 27.1785C12.4877 27.1785 13.0352 27.119 13.6139 26.9824C13.4822 29.4012 11.4733 31.3285 9.0223 31.3285Z" fill="white"/>
<path d="M56.0243 34.2976L51.2695 31.9201C50.94 31.7553 50.7353 31.4241 50.7353 31.0557V29.8516C51.8483 28.8634 52.5514 27.4234 52.5514 25.8216V24.8545C52.571 24.8545 52.5903 24.8551 52.6099 24.8551C53.0791 24.8551 53.4595 24.4747 53.4595 24.0055V22.1894C53.4595 19.2173 51.0415 16.7993 48.0695 16.7993H46.2533C43.2813 16.7993 40.8633 19.2173 40.8633 22.1894V24.0055C40.8633 24.4747 41.2437 24.8551 41.7129 24.8551C41.7199 24.8551 41.7403 24.8549 41.7713 24.8536V25.8216C41.7713 27.4235 42.4746 28.8636 43.5876 29.8517V31.0558C43.5876 31.4243 43.3829 31.7555 43.0532 31.9202C42.6335 32.13 42.4634 32.6404 42.6733 33.0601C42.8221 33.3578 43.1222 33.53 43.4339 33.53C43.5615 33.53 43.6911 33.5011 43.8131 33.4401C43.9637 33.3648 44.1038 33.2759 44.2344 33.1771L46.3118 35.2544V46.7075C46.3118 47.1768 46.6922 47.5572 47.1614 47.5572C47.6306 47.5572 48.011 47.1768 48.011 46.7075V35.2542L50.0882 33.1769C50.219 33.2758 50.359 33.3647 50.5095 33.4399L55.1105 35.7404L53.7149 37.1359C53.04 37.811 52.6682 38.7084 52.6682 39.663V46.7073C52.6682 47.1765 53.0486 47.5569 53.5178 47.5569C53.987 47.5569 54.3674 47.1765 54.3674 46.7073V39.663C54.3674 39.1623 54.5624 38.6915 54.9165 38.3374L56.2384 37.0155C56.2785 37.1692 56.3005 37.3295 56.3005 37.494V46.7073C56.3005 47.1765 56.6809 47.5569 57.1501 47.5569C57.6193 47.5569 57.9997 47.1765 57.9997 46.7073V37.494C57.9998 36.1317 57.2429 34.9069 56.0243 34.2976ZM42.5624 22.9811V22.1892H42.5625C42.5625 20.1541 44.2182 18.4984 46.2533 18.4984H48.0695C50.1046 18.4984 51.7603 20.1541 51.7603 22.1892V23.133C48.067 22.9337 45.8381 21.4965 45.8165 21.4824C45.6728 21.3865 45.5087 21.3396 45.3455 21.3396C45.1262 21.3396 44.9087 21.4244 44.7444 21.5885C43.9315 22.4014 43.135 22.7927 42.5624 22.9811ZM47.1614 33.7008L45.1981 31.7375C45.2554 31.5184 45.2868 31.2901 45.2868 31.0557V30.8748C45.8709 31.0921 46.5024 31.2115 47.1614 31.2115C47.8203 31.2115 48.4519 31.0921 49.036 30.8748V31.0557C49.036 31.2901 49.0672 31.5184 49.1247 31.7375L47.1614 33.7008ZM47.1614 29.5124C45.1263 29.5124 43.4706 27.8568 43.4706 25.8216V24.4519C44.0656 24.2142 44.7589 23.8361 45.4644 23.2351C46.3566 23.6993 48.2233 24.5017 50.8522 24.7667V25.8216C50.8522 27.8567 49.1965 29.5124 47.1614 29.5124Z" fill="white"/>
</svg>
