<svg width="56" height="56" viewBox="0 0 56 56" fill="none" xmlns="http://www.w3.org/2000/svg">
<path fill-rule="evenodd" clip-rule="evenodd" d="M28 56C43.464 56 56 43.464 56 28C56 12.536 43.464 0 28 0C12.536 0 0 12.536 0 28C0 43.464 12.536 56 28 56Z" fill="#F52929"/>
<path fill-rule="evenodd" clip-rule="evenodd" d="M38.7234 20.4043C39.4218 21.176 39.6683 22.9227 39.6683 22.9227C39.6683 22.9227 39.9149 24.9942 39.9149 27.0658V28.9749C39.9149 31.0059 39.6683 33.0775 39.6683 33.0775C39.6683 33.0775 39.4218 34.8241 38.7234 35.5958C37.8638 36.5229 36.8927 36.6051 36.4109 36.6459C36.3861 36.648 36.3625 36.65 36.3404 36.652C33.0124 36.9363 27.9999 36.9363 27.9999 36.9363C27.9999 36.9363 21.7959 36.8956 19.906 36.6926C19.8056 36.6697 19.6819 36.6525 19.5413 36.633C18.934 36.5487 18.0104 36.4204 17.2765 35.5959C16.578 34.8241 16.3315 33.0775 16.3315 33.0775C16.3315 33.0775 16.085 31.0465 16.085 28.975V27.0658C16.085 24.9942 16.3315 22.9227 16.3315 22.9227C16.3315 22.9227 16.5369 21.1761 17.2765 20.4043C18.1361 19.4772 19.1071 19.395 19.5889 19.3542C19.6138 19.3521 19.6373 19.3502 19.6594 19.3482C22.9874 19.1045 27.9999 19.0638 27.9999 19.0638C27.9999 19.0638 33.0124 19.1045 36.3404 19.3482C36.3747 19.3512 36.4123 19.3541 36.453 19.3572C36.9476 19.3946 37.8881 19.4659 38.7234 20.4043ZM25.1243 25.63C25.1243 24.8601 25.9577 24.379 26.6244 24.764L31.3966 27.5203C32.0707 27.9097 32.061 28.8859 31.3794 29.2619L26.6072 31.894C25.9407 32.2616 25.1243 31.7795 25.1243 31.0184V25.63Z" fill="white"/>
</svg>
